<?xml version="1.0" standalone="no"?>
<!DOCTYPE svg PUBLIC "-//W3C//DTD SVG 20010904//EN"
 "http://www.w3.org/TR/2001/REC-SVG-20010904/DTD/svg10.dtd">
<svg version="1.0" xmlns="http://www.w3.org/2000/svg"
 width="420.000000pt" height="420.000000pt" viewBox="0 0 420.000000 420.000000"
 preserveAspectRatio="xMidYMid meet">
<metadata>
Created by potrace 1.14, written by Peter Selinger 2001-2017
</metadata>
<g transform="translate(0.000000,420.000000) scale(0.100000,-0.100000)"
fill="#000000" stroke="none">
<path d="M2291 3650 c-58 -48 -174 -120 -195 -120 -2 0 -7 17 -10 38 -11 57
-16 72 -28 72 -6 0 -45 -20 -87 -44 -42 -24 -125 -65 -186 -91 -60 -26 -137
-61 -170 -78 -123 -61 -274 -193 -312 -271 l-17 -36 -21 57 c-12 32 -28 58
-35 58 -16 0 -141 -216 -171 -295 -43 -111 -36 -355 17 -650 16 -89 24 -168
23 -231 -1 -90 0 -97 25 -124 17 -18 26 -39 26 -61 0 -53 -18 -40 -53 36 -18
38 -35 69 -40 70 -4 0 -17 -15 -28 -33 -18 -28 -20 -43 -15 -127 4 -87 9 -129
21 -170 2 -8 7 -28 10 -45 8 -49 14 -76 20 -95 5 -17 29 -18 463 -19 251 0
462 3 467 7 6 4 18 23 28 41 18 35 18 35 -4 52 l-23 17 23 84 c32 118 48 148
80 148 38 0 68 -25 76 -63 4 -17 16 -59 26 -91 22 -70 24 -86 6 -86 -7 0 -21
-6 -31 -13 -17 -12 -17 -14 1 -47 10 -19 23 -38 28 -42 6 -4 216 -7 467 -7
l457 1 20 86 c47 201 53 317 21 370 -11 17 -23 32 -27 32 -5 -1 -23 -33 -42
-73 -28 -58 -35 -67 -39 -48 -5 31 5 66 23 85 12 11 16 44 19 133 1 65 11 179
20 253 10 74 18 198 19 275 0 127 -2 147 -26 217 -49 143 -218 448 -248 448
-5 0 -9 -19 -9 -42 0 -24 -4 -49 -8 -55 -13 -20 -83 61 -140 162 -64 114 -110
177 -122 170 -6 -3 -15 -26 -21 -51 -13 -50 -21 -48 -39 11 -30 97 -72 195
-84 195 -7 0 -21 -16 -32 -35 -22 -41 -34 -30 -34 32 0 23 -4 44 -9 47 -5 3
-41 -21 -80 -54z m-381 -920 c110 -14 266 -12 441 5 161 17 198 14 297 -22 43
-16 44 -18 56 -88 4 -28 -10 -252 -20 -302 -4 -19 -11 -23 -42 -23 -43 0 -198
-33 -257 -54 -21 -7 -49 -25 -61 -39 -12 -14 -40 -35 -62 -46 -22 -11 -43 -25
-47 -31 -4 -6 -52 -10 -115 -10 -63 0 -111 4 -115 10 -4 6 -25 20 -47 31 -22
11 -50 32 -62 46 -12 14 -40 32 -61 39 -59 21 -214 54 -257 54 -44 0 -42 -7
-56 170 -11 132 -4 216 19 231 12 7 77 20 204 39 28 5 64 6 80 4 17 -2 64 -8
105 -14z m-387 -637 c-7 -2 -19 -2 -25 0 -7 3 -2 5 12 5 14 0 19 -2 13 -5z
m1180 0 c-7 -2 -19 -2 -25 0 -7 3 -2 5 12 5 14 0 19 -2 13 -5z m-1240 -10 c-7
-2 -21 -2 -30 0 -10 3 -4 5 12 5 17 0 24 -2 18 -5z m1300 0 c-7 -2 -19 -2 -25
0 -7 3 -2 5 12 5 14 0 19 -2 13 -5z m-75 -115 c60 -37 112 -129 112 -200 0
-53 30 -92 63 -82 59 18 -35 -96 -109 -132 -46 -22 -69 -27 -137 -27 -72 -1
-91 3 -148 30 -72 34 -105 68 -139 148 -28 64 -28 89 -1 151 22 50 93 134 77
89 -5 -11 -13 -33 -18 -48 -6 -15 -7 -48 -3 -75 5 -37 16 -56 50 -89 39 -40
47 -43 94 -43 29 0 64 6 79 14 97 51 115 179 37 262 -28 29 -30 34 -12 28 12
-3 37 -15 55 -26z m-1142 -10 c-52 -70 -53 -155 -1 -216 34 -40 75 -55 136
-50 40 4 57 12 85 39 57 55 65 114 30 214 -5 11 10 1 33 -24 25 -27 47 -63 56
-93 13 -46 13 -53 -5 -100 -36 -94 -94 -157 -175 -189 -48 -19 -173 -15 -235
7 -81 28 -180 134 -126 134 24 0 56 50 56 87 0 57 52 157 101 192 57 42 77 41
45 -1z m88 -43 c7 -20 -18 -49 -38 -42 -25 10 -32 38 -12 53 20 14 42 9 50
-11z m870 2 c13 -21 -15 -53 -38 -44 -19 8 -21 38 -4 55 15 15 28 11 42 -11z
m-1419 -302 c9 -36 14 -69 11 -73 -14 -14 -38 47 -51 133 -6 35 -5 38 8 23 8
-10 22 -47 32 -83z m2065 29 c-7 -32 -17 -68 -22 -80 -12 -27 -44 -44 -34 -19
3 9 13 41 22 73 31 107 54 125 34 26z"/>
<path d="M2766 1782 l-19 -27 24 22 c12 12 21 24 18 27 -2 2 -13 -8 -23 -22z"/>
<path d="M1410 1803 c0 -6 8 -17 18 -24 16 -13 16 -13 2 6 -8 11 -16 22 -17
24 -2 2 -3 0 -3 -6z"/>
<path d="M867 1413 c-3 -5 -1 -99 4 -208 5 -110 16 -324 23 -475 l14 -275 -38
-50 c-59 -78 -108 -159 -130 -214 -16 -40 -50 -168 -50 -187 0 -2 13 -4 29 -4
28 0 29 1 40 78 12 83 67 210 120 273 l29 34 7 -150 c7 -163 17 -210 45 -225
12 -6 419 -10 1144 -10 l1126 0 20 32 c13 21 20 51 20 83 0 28 3 88 7 134 7
96 9 95 68 -19 37 -73 65 -160 65 -202 0 -25 4 -28 31 -28 32 0 33 1 15 85
-10 49 -60 155 -117 247 l-60 99 10 187 c6 103 15 286 21 407 6 121 13 255 17
298 4 56 3 77 -6 77 -16 0 -19 -12 -25 -123 -13 -202 -52 -524 -64 -512 -3 2
-11 -3 -18 -13 -12 -15 -12 -15 -7 7 5 18 2 22 -8 19 -8 -3 -13 -11 -11 -17 3
-17 -25 -13 -32 5 -8 22 -8 26 4 19 6 -3 7 1 3 10 -3 9 -9 13 -12 8 -10 -13
-41 -15 -41 -2 0 7 -7 4 -16 -7 -8 -10 -13 -13 -9 -6 7 13 7 13 -48 16 -26 1
-41 -4 -47 -14 -6 -10 -8 -5 -5 17 2 18 0 35 -5 38 -5 3 -7 -4 -5 -16 3 -15 0
-19 -10 -15 -8 3 -15 0 -15 -6 0 -13 -14 -1 -16 13 -1 5 -2 13 -3 18 0 5 -8
11 -16 15 -12 4 -13 2 -5 -13 8 -16 7 -19 -8 -16 -9 2 -24 4 -32 4 -13 1 -13
2 0 11 13 8 13 10 -2 10 -9 0 -19 -6 -22 -12 -5 -10 -7 -10 -12 0 -5 10 -9 10
-20 1 -8 -7 -17 -9 -21 -5 -3 3 -1 6 6 6 7 0 9 5 6 10 -3 6 -1 10 5 10 6 0 8
5 5 10 -11 17 -25 11 -35 -15 -11 -30 -20 -33 -13 -5 6 23 -15 27 -36 8 -11
-10 -13 -10 -7 0 4 7 1 12 -9 12 -8 0 -18 7 -21 15 -6 15 -50 14 -47 -1 1 -5
-12 -9 -28 -9 -16 0 -29 5 -29 13 0 6 -8 12 -17 13 -16 0 -16 1 1 8 13 5 16
10 9 14 -7 4 -14 3 -17 -2 -4 -6 -18 -6 -36 -1 -20 6 -30 5 -34 -3 -2 -7 -5
-4 -5 6 -1 14 -5 16 -20 7 -31 -16 -51 -13 -44 8 6 15 5 16 -12 2 -17 -14 -18
-13 -13 2 4 9 1 19 -6 21 -10 4 -12 -1 -8 -16 5 -19 3 -20 -10 -9 -9 7 -23 10
-32 6 -9 -4 -16 -1 -16 6 0 9 -4 9 -17 -1 -11 -10 -14 -10 -9 -1 4 6 2 12 -3
12 -6 0 -12 -10 -12 -22 -1 -17 -2 -19 -6 -5 -3 10 -14 17 -29 17 -17 0 -24 6
-24 19 0 25 -27 34 -39 13 -6 -10 -11 -12 -11 -5 0 7 -3 12 -7 12 -27 -4 -63
3 -58 11 3 6 -1 10 -9 10 -9 0 -16 -7 -16 -16 0 -8 -5 -12 -11 -9 -6 4 -8 14
-4 22 4 13 3 14 -10 3 -8 -7 -12 -17 -8 -23 3 -6 1 -7 -5 -3 -6 4 -8 14 -5 24
6 14 4 15 -8 5 -11 -9 -18 -8 -33 3 -11 8 -25 14 -30 14 -6 0 -5 -4 2 -9 11
-7 11 -9 -2 -14 -9 -4 -16 -2 -16 4 0 6 -7 9 -15 6 -8 -4 -22 4 -32 17 -10 12
-23 21 -30 19 -6 -2 -15 1 -19 8 -4 8 -3 9 4 5 7 -4 12 -2 12 4 0 7 -6 10 -12
7 -7 -2 -12 -14 -11 -26 2 -11 -2 -21 -8 -21 -5 0 -7 5 -4 11 4 6 0 9 -11 7
-14 -2 -18 2 -16 16 3 18 3 18 -14 2 -9 -9 -23 -15 -31 -12 -8 3 -24 6 -35 6
-12 0 -18 5 -15 13 3 9 -6 14 -26 15 -17 2 -34 6 -37 11 -7 11 -42 23 -36 12
3 -5 -1 -11 -9 -15 -8 -3 -15 0 -15 7 0 7 -3 8 -8 2 -4 -5 -15 -11 -25 -11
-13 -1 -16 3 -12 16 5 16 2 18 -22 14 -21 -3 -24 -2 -13 6 13 9 13 10 0 11 -8
1 -21 1 -27 0 -7 -1 -13 5 -13 14 0 8 -5 15 -10 15 -7 0 -7 -6 -1 -19 8 -15 7
-20 -5 -25 -11 -4 -15 -2 -11 7 3 8 -3 13 -14 14 -10 1 -19 -2 -19 -8 0 -5 -5
-9 -11 -9 -5 0 -7 4 -4 10 4 6 -6 7 -25 4 -34 -7 -39 2 -12 23 9 8 11 12 5 8
-7 -3 -19 -3 -25 2 -7 4 -24 8 -38 9 -14 1 -17 0 -7 -3 10 -2 17 -14 16 -26 0
-16 -2 -18 -7 -7 -4 9 -14 16 -22 16 -23 1 -50 15 -50 26 0 5 5 6 12 2 7 -4 8
-3 4 5 -5 8 -12 9 -20 2 -13 -11 -56 -4 -56 10 0 5 -4 9 -10 9 -5 0 -7 -7 -3
-16 4 -11 2 -15 -6 -13 -7 3 -12 9 -11 14 1 5 -7 12 -17 16 -12 4 -22 0 -30
-15 l-12 -21 -1 22 c0 19 -5 21 -34 17 -19 -2 -38 0 -41 6 -3 5 -15 10 -26 10
-10 0 -19 6 -19 13 0 7 -3 8 -8 2 -20 -27 -31 -11 -43 60 -11 69 -38 120 -52
98z m336 -239 c-2 -7 -13 -10 -24 -7 -23 6 -18 19 9 19 11 0 18 -5 15 -12z
m294 -60 c-3 -3 -12 -4 -19 -1 -8 3 -5 6 6 6 11 1 17 -2 13 -5z m200 -40 c-3
-3 -12 -4 -19 -1 -8 3 -5 6 6 6 11 1 17 -2 13 -5z m200 -60 c-3 -3 -12 -4 -19
-1 -8 3 -5 6 6 6 11 1 17 -2 13 -5z m283 -110 c0 -18 -53 -74 -69 -74 -19 0
-12 43 11 67 25 26 58 31 58 7z m293 -1 c-7 -2 -19 -2 -25 0 -7 3 -2 5 12 5
14 0 19 -2 13 -5z m76 -15 c-1 -16 -3 -18 -6 -6 -2 9 -12 19 -21 21 -12 3 -10
5 6 6 17 1 22 -4 21 -21z m141 -18 c0 -5 -7 -7 -15 -4 -8 4 -15 8 -15 10 0 2
7 4 15 4 8 0 15 -4 15 -10z m-490 -40 c5 0 16 -7 24 -16 15 -14 14 -18 -4 -41
-27 -34 -25 -69 4 -98 l24 -23 -24 -41 c-28 -46 -50 -56 -89 -41 -20 8 -38 7
-62 -1 -29 -9 -37 -8 -55 8 -53 47 -80 150 -54 201 22 43 49 55 106 48 26 -4
58 -2 71 3 13 5 30 8 37 5 8 -2 17 -4 22 -4z m935 -60 c3 -5 1 -10 -4 -10 -6
0 -11 5 -11 10 0 6 2 10 4 10 3 0 8 -4 11 -10z"/>
<path d="M1740 1090 c0 -5 5 -10 11 -10 5 0 7 5 4 10 -3 6 -8 10 -11 10 -2 0
-4 -4 -4 -10z"/>
<path d="M1920 1040 c0 -5 5 -10 11 -10 5 0 7 5 4 10 -3 6 -8 10 -11 10 -2 0
-4 -4 -4 -10z"/>
<path d="M2283 973 c9 -2 23 -2 30 0 6 3 -1 5 -18 5 -16 0 -22 -2 -12 -5z"/>
<path d="M2350 970 c-8 -5 -12 -12 -9 -15 4 -3 12 1 19 10 14 17 11 19 -10 5z"/>
<path d="M2595 911 c-3 -5 -1 -12 5 -16 5 -3 10 1 10 9 0 18 -6 21 -15 7z"/>
</g>
</svg>
